<svg version="1.1" viewBox="0.0 0.0 710.0 157.7769028871391" fill="none" stroke="none" stroke-linecap="square" stroke-miterlimit="10" xmlns:xlink="http://www.w3.org/1999/xlink" xmlns="http://www.w3.org/2000/svg"><clipPath id="p.0"><path d="m0 0l710.0 0l0 157.7769l-710.0 0l0 -157.7769z" clip-rule="nonzero"/></clipPath><g clip-path="url(#p.0)"><path fill="#000000" fill-opacity="0.0" d="m0 0l710.0 0l0 157.7769l-710.0 0z" fill-rule="evenodd"/><path fill="#000000" fill-opacity="0.0" d="m-1.1154869 -6.0323706l710.01575 0l0 174.51968l-710.01575 0z" fill-rule="evenodd"/><path fill="#ffffff" d="m32.12847 138.82748l0 -112.00001l21.609375 0l0 44.15625l41.4375 -44.15625l28.3125 0l-47.359375 50.5625l49.125 61.437508l-27.046875 0l-36.3125 -46.078133l-8.15625 8.640625l0 37.437508l-21.609375 0zm102.408806 0l0 -80.00001l21.109375 0l0 14.71875q4.96875 -7.515625 12.5625 -11.265625q7.609375 -3.765625 15.765625 -3.765625l0 20.46875q-7.359375 0 -13.84375 1.765625q-6.484375 1.765625 -10.484375 5.765625q-4.0 4.0 -4.0 10.234375l0 42.078133l-21.109375 0zm98.23378 1.921875q-12.15625 0 -21.6875 -5.359375q-9.515625 -5.359375 -14.875 -14.796883q-5.359375 -9.453125 -5.359375 -21.765625q0 -12.3125 5.28125 -21.75q5.28125 -9.453125 14.71875 -14.8125q9.4375 -5.359375 21.609375 -5.359375q12.3125 0 21.75 5.359375q9.4375 5.359375 14.71875 14.8125q5.28125 9.4375 5.28125 21.75q0 12.3125 -5.28125 21.765625q-5.28125 9.437508 -14.640625 14.796883q-9.359375 5.359375 -21.515625 5.359375zm0 -19.515633q5.921875 0 10.390625 -2.875q4.484375 -2.890625 6.96875 -7.921875q2.484375 -5.046875 2.484375 -11.609375q0 -6.5625 -2.5625 -11.59375q-2.5625 -5.046875 -7.125 -7.921875q-4.5625 -2.890625 -10.46875 -2.890625q-5.765625 0 -10.328125 2.890625q-4.5625 2.875 -7.125 7.921875q-2.546875 5.03125 -2.546875 11.59375q0 6.5625 2.546875 11.609375q2.5625 5.03125 7.203125 7.921875q4.640625 2.875 10.5625 2.875zm55.366333 17.593758l0 -80.00001l19.828125 0l0.96875 10.875q3.84375 -6.234375 9.84375 -9.515625q6.0 -3.28125 13.671875 -3.28125q9.4375 0 16.15625 3.84375q6.71875 3.84375 10.234375 11.921875q3.53125 8.078125 3.375 20.875l0 45.281258l-21.125 0l0 -40.953133q0 -8.171875 -1.84375 -12.640625q-1.828125 -4.484375 -5.1875 -6.484375q-3.359375 -2.0 -7.84375 -2.0q-8.15625 -0.15625 -12.5625 4.96875q-4.40625 5.109375 -4.40625 15.1875l0 41.921883l-21.109375 0zm92.161316 0l0 -80.00001l21.109375 0l0 80.00001l-21.109375 0zm10.546875 -92.95313q-4.796875 0 -8.484375 -3.59375q-3.671875 -3.609375 -3.671875 -8.578125q0 -4.953123 3.671875 -8.546873q3.6875 -3.609375 8.484375 -3.609375q4.96875 0 8.5625 3.609375q3.59375 3.59375 3.59375 8.546873q0 4.96875 -3.59375 8.578125q-3.59375 3.59375 -8.5625 3.59375zm68.65442 94.87501q-12.484375 0 -22.25 -5.359375q-9.75 -5.359375 -15.203125 -14.875008q-5.4375 -9.53125 -5.4375 -21.6875q0 -12.3125 5.4375 -21.75q5.453125 -9.453125 15.046875 -14.8125q9.59375 -5.359375 22.078125 -5.359375q12.0 0 21.921875 5.921875q9.921875 5.921875 14.40625 17.125l-19.84375 7.03125q-2.25 -4.640625 -6.96875 -7.4375q-4.71875 -2.796875 -10.46875 -2.796875q-5.921875 0 -10.40625 2.796875q-4.484375 2.796875 -7.046875 7.765625q-2.546875 4.953125 -2.546875 11.515625q0 6.5625 2.546875 11.4375q2.5625 4.875 7.203125 7.765625q4.640625 2.875 10.5625 2.875q5.765625 0 10.484375 -3.03125q4.71875 -3.046875 6.953125 -8.0l20.0 7.03125q-4.640625 11.359383 -14.484375 17.609383q-9.828125 6.234375 -21.984375 6.234375zm48.797546 -1.921875l0 -112.00001l21.109375 0l0 112.00001l-21.109375 0zm75.516235 1.921875q-11.84375 0 -20.96875 -5.359375q-9.109375 -5.359375 -14.3125 -14.796883q-5.203125 -9.453125 -5.203125 -21.765625q0 -12.3125 5.359375 -21.75q5.359375 -9.453125 14.71875 -14.8125q9.359375 -5.359375 21.53125 -5.359375q10.546875 0 19.421875 5.53125q8.890625 5.515625 14.25 16.15625q5.359375 10.640625 5.359375 25.828125l-58.5625 0q0.8125 8.0 6.890625 12.734375q6.078125 4.71875 13.75 4.71875q6.5625 0 10.71875 -2.796875q4.171875 -2.8125 6.40625 -7.296875l18.875 7.359375q-3.359375 6.734375 -8.71875 11.609383q-5.359375 4.875 -12.71875 7.4375q-7.359375 2.5625 -16.796875 2.5625zm-17.28125 -52.000008l34.5625 0q-0.484375 -4.96875 -3.203125 -8.0q-2.71875 -3.046875 -6.40625 -4.484375q-3.671875 -1.4375 -7.1875 -1.4375q-3.359375 0 -7.28125 1.359375q-3.921875 1.359375 -6.890625 4.40625q-2.953125 3.03125 -3.59375 8.15625zm69.765015 50.078133l0 -80.00001l21.109375 0l0 14.71875q4.96875 -7.515625 12.5625 -11.265625q7.609375 -3.765625 15.765625 -3.765625l0 20.46875q-7.359375 0 -13.84375 1.765625q-6.484375 1.765625 -10.484375 5.765625q-4.0 4.0 -4.0 10.234375l0 42.078133l-21.109375 0z" fill-rule="nonzero"/></g></svg>